<svg width="81" height="80" viewBox="0 0 81 80" fill="none" xmlns="http://www.w3.org/2000/svg">
<path d="M29.8991 58.5553C29.2636 57.9199 28.2362 57.9199 27.6008 58.5553C26.9653 59.1907 26.9653 60.2182 27.6008 60.8536L29.4394 62.6923H21.9767C17.1232 62.6923 13.1891 58.7446 13.1891 53.9046V48.4563C13.1891 47.564 12.459 46.834 11.5667 46.834C10.6744 46.834 9.9444 47.564 9.9444 48.4563V53.9046C9.9444 60.5427 15.3386 65.9369 21.9767 65.9369H29.4394L27.6008 67.7755C26.9653 68.411 26.9653 69.4384 27.6008 70.0738C27.9117 70.3848 28.3308 70.547 28.7499 70.547C29.169 70.547 29.5746 70.3848 29.8991 70.0738L34.5092 65.4637C35.1446 64.8283 35.1446 63.8008 34.5092 63.1654L29.8991 58.5553Z" fill="#303030"/>
<path d="M38.3437 9.44336H11.6969C10.8046 9.44336 10.0746 10.1734 10.0746 11.0657V37.7124C10.0746 38.6047 10.8046 39.3347 11.6969 39.3347H38.3437C39.236 39.3347 39.966 38.6047 39.966 37.7124V11.0657C39.966 10.1734 39.2495 9.44336 38.3437 9.44336ZM36.7214 36.0901H13.3192V12.688H36.7214V36.0901Z" fill="#EE2326"/>
<path d="M58.9203 14.0569H51.4576L53.2962 12.2182C53.9317 11.5828 53.9317 10.5553 53.2962 9.91992C52.6608 9.28451 51.6334 9.28451 50.9979 9.91992L46.4014 14.53C45.766 15.1654 45.766 16.1929 46.4014 16.8283L51.0115 21.4385C51.3224 21.7494 51.7415 21.9116 52.1606 21.9116C52.5797 21.9116 52.9853 21.7494 53.3098 21.4385C53.9452 20.803 53.9452 19.7756 53.3098 19.1402L51.4711 17.3015H58.9338C63.7873 17.3015 67.7214 21.2492 67.7214 26.0891V31.5375C67.7214 32.4297 68.4515 33.1598 69.3437 33.1598C70.236 33.1598 70.9661 32.4297 70.9661 31.5375V26.0891C70.9661 19.4511 65.5583 14.0569 58.9203 14.0569Z" fill="#303030"/>
<path d="M69.2268 67.2988C68.7942 67.2988 68.3751 67.4746 68.0777 67.772C67.7802 68.0694 67.6045 68.4885 67.6045 68.9212C67.6045 69.3403 67.7802 69.7729 68.0777 70.0703C68.3751 70.3677 68.7942 70.5435 69.2268 70.5435C69.6594 70.5435 70.0785 70.3677 70.376 70.0703C70.6734 69.7729 70.8492 69.3538 70.8492 68.9212C70.8492 68.4885 70.6734 68.0694 70.376 67.772C70.065 67.4746 69.6459 67.2988 69.2268 67.2988Z" fill="#303030"/>
<path d="M62.5647 67.2988C61.6724 67.2988 60.9424 68.0289 60.9424 68.9212C60.9424 69.8134 61.6724 70.5435 62.5647 70.5435C63.457 70.5435 64.187 69.8134 64.187 68.9212C64.187 68.0289 63.457 67.2988 62.5647 67.2988Z" fill="#303030"/>
<path d="M49.2398 67.2988C48.3475 67.2988 47.6175 68.0289 47.6175 68.9212C47.6175 69.8134 48.3475 70.5435 49.2398 70.5435C50.132 70.5435 50.8621 69.8134 50.8621 68.9212C50.8621 68.0289 50.1456 67.2988 49.2398 67.2988Z" fill="#303030"/>
<path d="M55.9027 67.2988C55.0104 67.2988 54.2803 68.0289 54.2803 68.9212C54.2803 69.8134 55.0104 70.5435 55.9027 70.5435C56.795 70.5435 57.5251 69.8134 57.5251 68.9212C57.5251 68.0289 56.795 67.2988 55.9027 67.2988Z" fill="#303030"/>
<path d="M42.5778 67.2988C42.1452 67.2988 41.7261 67.4746 41.4286 67.772C41.1312 68.0694 40.9554 68.4885 40.9554 68.9212C40.9554 69.3403 41.1312 69.7729 41.4286 70.0703C41.7261 70.3677 42.1452 70.5435 42.5778 70.5435C42.9969 70.5435 43.4295 70.3677 43.727 70.0703C44.0244 69.7729 44.2001 69.3538 44.2001 68.9212C44.2001 68.4885 44.0244 68.0694 43.727 67.772C43.4295 67.4746 42.9968 67.2988 42.5778 67.2988Z" fill="#303030"/>
<path d="M42.5778 60.6367C41.6855 60.6367 40.9554 61.3668 40.9554 62.259C40.9554 63.1513 41.6855 63.8814 42.5778 63.8814C43.4701 63.8814 44.2001 63.1513 44.2001 62.259C44.2001 61.3668 43.4699 60.6367 42.5778 60.6367Z" fill="#303030"/>
<path d="M42.5778 53.9746C41.6855 53.9746 40.9554 54.7047 40.9554 55.5969C40.9554 56.4892 41.6855 57.2193 42.5778 57.2193C43.4701 57.2193 44.2001 56.4892 44.2001 55.5969C44.2001 54.7047 43.4699 53.9746 42.5778 53.9746Z" fill="#303030"/>
<path d="M42.5778 47.3125C41.6855 47.3125 40.9554 48.0425 40.9554 48.9348C40.9554 49.8271 41.6855 50.5572 42.5778 50.5572C43.4701 50.5572 44.2001 49.8271 44.2001 48.9348C44.2001 48.0425 43.4699 47.3125 42.5778 47.3125Z" fill="#303030"/>
<path d="M42.5778 40.6504C42.1452 40.6504 41.7261 40.8261 41.4286 41.1236C41.1312 41.421 40.9554 41.8401 40.9554 42.2727C40.9554 42.7054 41.1312 43.1245 41.4286 43.4219C41.7261 43.7193 42.1452 43.8951 42.5778 43.8951C42.9969 43.8951 43.4295 43.7193 43.727 43.4219C44.0244 43.1245 44.2001 42.7054 44.2001 42.2727C44.2001 41.8536 44.0244 41.421 43.727 41.1236C43.4159 40.8126 42.9968 40.6504 42.5778 40.6504Z" fill="#303030"/>
<path d="M62.5647 40.6504C61.6724 40.6504 60.9424 41.3804 60.9424 42.2727C60.9424 43.165 61.6724 43.8951 62.5647 43.8951C63.457 43.8951 64.187 43.165 64.187 42.2727C64.187 41.3804 63.457 40.6504 62.5647 40.6504Z" fill="#303030"/>
<path d="M55.9027 40.6504C55.0104 40.6504 54.2803 41.3804 54.2803 42.2727C54.2803 43.165 55.0104 43.8951 55.9027 43.8951C56.795 43.8951 57.5251 43.165 57.5251 42.2727C57.5251 41.3804 56.795 40.6504 55.9027 40.6504Z" fill="#303030"/>
<path d="M49.2398 40.6504C48.3475 40.6504 47.6175 41.3804 47.6175 42.2727C47.6175 43.165 48.3475 43.8951 49.2398 43.8951C50.132 43.8951 50.8621 43.165 50.8621 42.2727C50.8621 41.3804 50.1456 40.6504 49.2398 40.6504Z" fill="#303030"/>
<path d="M69.2268 40.6504C68.7942 40.6504 68.3751 40.8261 68.0777 41.1236C67.7802 41.421 67.6045 41.8401 67.6045 42.2727C67.6045 42.7054 67.7802 43.1245 68.0777 43.4219C68.3751 43.7193 68.7942 43.8951 69.2268 43.8951C69.6594 43.8951 70.0785 43.7193 70.376 43.4219C70.6734 43.1245 70.8492 42.7054 70.8492 42.2727C70.8492 41.8536 70.6734 41.421 70.376 41.1236C70.065 40.8261 69.6459 40.6504 69.2268 40.6504Z" fill="#303030"/>
<path d="M69.2268 47.3125C68.3345 47.3125 67.6045 48.0425 67.6045 48.9348C67.6045 49.8271 68.3345 50.5572 69.2268 50.5572C70.1191 50.5572 70.8492 49.8271 70.8492 48.9348C70.8492 48.0425 70.1191 47.3125 69.2268 47.3125Z" fill="#303030"/>
<path d="M69.2268 60.6367C68.3345 60.6367 67.6045 61.3668 67.6045 62.259C67.6045 63.1513 68.3345 63.8814 69.2268 63.8814C70.1191 63.8814 70.8492 63.1513 70.8492 62.259C70.8492 61.3668 70.1191 60.6367 69.2268 60.6367Z" fill="#303030"/>
<path d="M69.2268 53.9746C68.3345 53.9746 67.6045 54.7047 67.6045 55.5969C67.6045 56.4892 68.3345 57.2193 69.2268 57.2193C70.1191 57.2193 70.8492 56.4892 70.8492 55.5969C70.8492 54.7047 70.1191 53.9746 69.2268 53.9746Z" fill="#303030"/>
</svg>
