<svg width="80" height="80" viewBox="0 0 80 80" fill="none" xmlns="http://www.w3.org/2000/svg">
<path d="M47.7658 67.7595C44.7138 67.7595 41.8438 66.5708 39.6856 64.4125L13.3476 38.0745C11.1892 35.9161 10.0006 33.0466 10.0006 29.9943C10.0006 26.9423 11.1893 24.0723 13.3476 21.9141L16.7537 18.5079C17.4337 17.8279 18.3368 17.4614 19.2991 17.475C20.2605 17.4889 21.1533 17.8817 21.8136 18.5807L28.646 25.819C29.2796 26.4904 29.6214 27.3683 29.6083 28.2912C29.5951 29.2145 29.2282 30.0822 28.5753 30.7351L26.9758 32.3346C25.956 33.3544 25.956 35.0144 26.9758 36.0341L41.7257 50.784C42.2196 51.2783 42.8769 51.5503 43.5755 51.5503C44.274 51.5503 44.9314 51.2783 45.4252 50.784L47.0248 49.1845C47.6776 48.5316 48.5454 48.1647 49.4686 48.1516C50.3906 48.138 51.2695 48.4799 51.9408 49.1138L59.1792 55.9462C59.8785 56.6065 60.2713 57.4994 60.2849 58.4608C60.2988 59.4222 59.9319 60.3261 59.2519 61.0061L55.8458 64.4123C53.6878 66.571 50.8183 67.7596 47.766 67.7596L47.7658 67.7595ZM19.2473 19.2634C18.783 19.2634 18.3479 19.4434 18.0188 19.7725L14.6126 23.1787C10.8547 26.9366 10.8547 33.0507 14.6126 36.8084L40.9506 63.1464C42.7712 64.967 45.1912 65.9691 47.7654 65.9691C50.3395 65.9691 52.7599 64.9666 54.5801 63.1464L57.9863 59.7406C58.3215 59.4054 58.5023 58.96 58.4953 58.4862C58.4888 58.0125 58.2952 57.5724 57.9501 57.2471L50.7118 50.4146C50.0232 49.7646 48.959 49.7798 48.2893 50.4496L46.6898 52.0491C45.8577 52.8811 44.7512 53.3393 43.5745 53.3393C42.3979 53.3393 41.2913 52.8811 40.4593 52.0491L25.7105 37.2992C23.9926 35.5813 23.9926 32.7866 25.7105 31.0691L27.31 29.4696C27.9797 28.7999 27.9953 27.7358 27.3449 27.0471L20.5121 19.8084C20.1871 19.4641 19.7466 19.2705 19.2729 19.2632H19.2474L19.2473 19.2634Z" fill="#303030"/>
<path d="M70.5758 34.6616H70.5737L42.5202 34.6086C42.2831 34.6082 42.0555 34.5137 41.8879 34.3453C41.7206 34.1772 41.6265 33.9492 41.627 33.7121L41.6639 14.2268C41.6652 13.7334 42.0654 13.334 42.5588 13.334H42.5609L70.6144 13.387C71.1083 13.3878 71.5085 13.7892 71.5072 14.2835L71.4703 33.7688C71.4699 34.0059 71.3754 34.2335 71.2069 34.4011C71.0393 34.5683 70.8125 34.6616 70.5754 34.6616H70.5758ZM43.4184 32.8209L69.6828 32.8706L69.7165 15.1756L43.4521 15.1259L43.4184 32.8209Z" fill="#EE2326"/>
<path d="M56.6321 27.1929C56.425 27.1929 56.2171 27.121 56.0499 26.9776L41.9752 14.9078C41.6001 14.5861 41.557 14.0211 41.8783 13.6464C42.2 13.2713 42.7649 13.2278 43.1396 13.5495L56.6316 25.1186L70.0288 13.6031C70.4035 13.281 70.9685 13.3233 71.2902 13.6984C71.6123 14.0732 71.57 14.6381 71.1948 14.9602L57.2149 26.9764C57.0481 27.1206 56.8402 27.1929 56.6323 27.1929L56.6321 27.1929Z" fill="#EE2326"/>
<path d="M70.5748 34.6621C70.3595 34.6621 70.1442 34.5849 69.9729 34.4288L58.9833 24.4215C58.618 24.0891 58.5913 23.5229 58.9241 23.1576C59.2569 22.7923 59.8227 22.7656 60.188 23.0984L71.1776 33.1057C71.5429 33.4381 71.5696 34.0043 71.2368 34.3696C71.0601 34.5639 70.8177 34.6621 70.5748 34.6621L70.5748 34.6621Z" fill="#EE2326"/>
<path d="M42.5219 34.6049C42.2787 34.6049 42.0367 34.5063 41.86 34.3128C41.5276 33.9475 41.5539 33.3813 41.9191 33.0489L52.9561 23.0006C53.3213 22.6682 53.8875 22.6945 54.22 23.0598C54.5524 23.425 54.5261 23.9912 54.1608 24.3237L43.1239 34.372C42.9529 34.5277 42.7372 34.6049 42.5219 34.6049H42.5219Z" fill="#EE2326"/>
<path d="M27.0474 31.8927C26.8091 31.8927 26.5716 31.7982 26.3953 31.6109L15.9662 20.5213C15.6276 20.1614 15.6453 19.5948 16.0048 19.2567C16.3647 18.9181 16.9309 18.9354 17.2694 19.2953L27.6986 30.3849C28.0371 30.7448 28.0195 31.311 27.66 31.6495C27.4874 31.8118 27.2672 31.8923 27.0473 31.8923L27.0474 31.8927Z" fill="#303030"/>
<path d="M57.8659 62.0214C57.6461 62.0214 57.4259 61.9409 57.2529 61.7782L46.1644 51.3494C45.8045 51.0109 45.7872 50.4447 46.1258 50.0844C46.4644 49.7245 47.0305 49.7072 47.3908 50.0458L58.4804 60.4749C58.8403 60.8135 58.8575 61.3797 58.519 61.74C58.3423 61.9273 58.1048 62.0214 57.8665 62.0214L57.8659 62.0214Z" fill="#303030"/>
</svg>
